{
    "asset" : {
        "generator" : "Khronos glTF Blender I/O v1.4.40",
        "version" : "2.0"
    },
    "scene" : 0,
    "scenes" : [
        {
            "name" : "Scene",
            "nodes" : [
                0
            ]
        }
    ],
    "nodes" : [
        {
            "mesh" : 0,
            "name" : "Cube.002",
            "scale" : [
                1,
                0.9920814037322998,
                1.0100563764572144
            ],
            "translation" : [
                0,
                0,
                0.019999999552965164
            ]
        }
    ],
    "materials" : [
        {
            "doubleSided" : true,
            "name" : "Plastic",
            "pbrMetallicRoughness" : {
                "baseColorFactor" : [
                    0,
                    0,
                    0,
                    1
                ],
                "metallicFactor" : 0,
                "roughnessFactor" : 0.5
            }
        },
        {
            "doubleSided" : true,
            "name" : "screws",
            "pbrMetallicRoughness" : {
                "baseColorFactor" : [
                    0.4411577880382538,
                    0.3126145601272583,
                    0.14344824850559235,
                    1
                ],
                "roughnessFactor" : 0.20000000298023224
            }
        },
        {
            "doubleSided" : true,
            "name" : "Copper",
            "pbrMetallicRoughness" : {
                "baseColorFactor" : [
                    0.13361510634422302,
                    0.08421649038791656,
                    0,
                    1
                ],
                "roughnessFactor" : 0.20000000298023224
            }
        },
        {
            "doubleSided" : true,
            "name" : "COVER",
            "pbrMetallicRoughness" : {
                "baseColorTexture" : {
                    "index" : 0,
                    "texCoord" : 0
                },
                "metallicFactor" : 0,
                "roughnessFactor" : 0.5
            }
        },
        {
            "doubleSided" : true,
            "name" : "Sillicon",
            "pbrMetallicRoughness" : {
                "baseColorFactor" : [
                    0.1412595957517624,
                    0.05435284972190857,
                    0.014196976087987423,
                    1
                ],
                "metallicFactor" : 0,
                "roughnessFactor" : 0.5
            }
        }
    ],
    "meshes" : [
        {
            "name" : "Cube.002",
            "primitives" : [
                {
                    "attributes" : {
                        "POSITION" : 0,
                        "NORMAL" : 1,
                        "TEXCOORD_0" : 2
                    },
                    "indices" : 3,
                    "material" : 0
                },
                {
                    "attributes" : {
                        "POSITION" : 4,
                        "NORMAL" : 5,
                        "TEXCOORD_0" : 6
                    },
                    "indices" : 7,
                    "material" : 1
                },
                {
                    "attributes" : {
                        "POSITION" : 8,
                        "NORMAL" : 9,
                        "TEXCOORD_0" : 10
                    },
                    "indices" : 11,
                    "material" : 2
                },
                {
                    "attributes" : {
                        "POSITION" : 12,
                        "NORMAL" : 13,
                        "TEXCOORD_0" : 14
                    },
                    "indices" : 15,
                    "material" : 3
                },
                {
                    "attributes" : {
                        "POSITION" : 16,
                        "NORMAL" : 17,
                        "TEXCOORD_0" : 18
                    },
                    "indices" : 19,
                    "material" : 4
                }
            ]
        }
    ],
    "textures" : [
        {
            "sampler" : 0,
            "source" : 0
        }
    ],
    "images" : [
        {
            "bufferView" : 16,
            "mimeType" : "image/jpeg",
            "name" : "maxresdefault"
        }
    ],
    "accessors" : [
        {
            "bufferView" : 0,
            "componentType" : 5126,
            "count" : 8510,
            "max" : [
                2.2491607666015625,
                0.3202003538608551,
                1.321147084236145
            ],
            "min" : [
                -2.2402193546295166,
                -0.24005520343780518,
                -1.4727201461791992
            ],
            "type" : "VEC3"
        },
        {
            "bufferView" : 1,
            "componentType" : 5126,
            "count" : 8510,
            "type" : "VEC3"
        },
        {
            "bufferView" : 2,
            "componentType" : 5126,
            "count" : 8510,
            "type" : "VEC2"
        },
        {
            "bufferView" : 3,
            "componentType" : 5123,
            "count" : 14970,
            "type" : "SCALAR"
        },
        {
            "bufferView" : 4,
            "componentType" : 5126,
            "count" : 432,
            "max" : [
                1.9340304136276245,
                0.22463460266590118,
                1.1608906984329224
            ],
            "min" : [
                -1.920749545097351,
                0.1810757964849472,
                1.047257423400879
            ],
            "type" : "VEC3"
        },
        {
            "bufferView" : 5,
            "componentType" : 5126,
            "count" : 432,
            "type" : "VEC3"
        },
        {
            "bufferView" : 6,
            "componentType" : 5126,
            "count" : 432,
            "type" : "VEC2"
        },
        {
            "bufferView" : 7,
            "componentType" : 5123,
            "count" : 708,
            "type" : "SCALAR"
        },
        {
            "bufferView" : 8,
            "componentType" : 5126,
            "count" : 4520,
            "max" : [
                1.0408607721328735,
                0.03979088366031647,
                1.2378137111663818
            ],
            "min" : [
                -1.0112024545669556,
                -0.0050399089232087135,
                0.9497382640838623
            ],
            "type" : "VEC3"
        },
        {
            "bufferView" : 9,
            "componentType" : 5126,
            "count" : 4520,
            "type" : "VEC3"
        },
        {
            "bufferView" : 10,
            "componentType" : 5126,
            "count" : 4520,
            "type" : "VEC2"
        },
        {
            "bufferView" : 11,
            "componentType" : 5123,
            "count" : 7884,
            "type" : "SCALAR"
        },
        {
            "bufferView" : 12,
            "componentType" : 5126,
            "count" : 48,
            "max" : [
                1.3833914995193481,
                0.3082220256328583,
                -0.2551441192626953
            ],
            "min" : [
                -1.3424543142318726,
                0.11491244286298752,
                -1.4514819383621216
            ],
            "type" : "VEC3"
        },
        {
            "bufferView" : 13,
            "componentType" : 5126,
            "count" : 48,
            "type" : "VEC3"
        },
        {
            "bufferView" : 14,
            "componentType" : 5126,
            "count" : 48,
            "type" : "VEC2"
        },
        {
            "bufferView" : 15,
            "componentType" : 5123,
            "count" : 108,
            "type" : "SCALAR"
        },
        {
            "bufferView" : 17,
            "componentType" : 5126,
            "count" : 6983,
            "max" : [
                1.0508607625961304,
                0.03475097566843033,
                1.2478137016296387
            ],
            "min" : [
                -1.0212024450302124,
                0,
                0.9397382736206055
            ],
            "type" : "VEC3"
        },
        {
            "bufferView" : 18,
            "componentType" : 5126,
            "count" : 6983,
            "type" : "VEC3"
        },
        {
            "bufferView" : 19,
            "componentType" : 5126,
            "count" : 6983,
            "type" : "VEC2"
        },
        {
            "bufferView" : 20,
            "componentType" : 5123,
            "count" : 18888,
            "type" : "SCALAR"
        }
    ],
    "bufferViews" : [
        {
            "buffer" : 0,
            "byteLength" : 102120,
            "byteOffset" : 0
        },
        {
            "buffer" : 0,
            "byteLength" : 102120,
            "byteOffset" : 102120
        },
        {
            "buffer" : 0,
            "byteLength" : 68080,
            "byteOffset" : 204240
        },
        {
            "buffer" : 0,
            "byteLength" : 29940,
            "byteOffset" : 272320
        },
        {
            "buffer" : 0,
            "byteLength" : 5184,
            "byteOffset" : 302260
        },
        {
            "buffer" : 0,
            "byteLength" : 5184,
            "byteOffset" : 307444
        },
        {
            "buffer" : 0,
            "byteLength" : 3456,
            "byteOffset" : 312628
        },
        {
            "buffer" : 0,
            "byteLength" : 1416,
            "byteOffset" : 316084
        },
        {
            "buffer" : 0,
            "byteLength" : 54240,
            "byteOffset" : 317500
        },
        {
            "buffer" : 0,
            "byteLength" : 54240,
            "byteOffset" : 371740
        },
        {
            "buffer" : 0,
            "byteLength" : 36160,
            "byteOffset" : 425980
        },
        {
            "buffer" : 0,
            "byteLength" : 15768,
            "byteOffset" : 462140
        },
        {
            "buffer" : 0,
            "byteLength" : 576,
            "byteOffset" : 477908
        },
        {
            "buffer" : 0,
            "byteLength" : 576,
            "byteOffset" : 478484
        },
        {
            "buffer" : 0,
            "byteLength" : 384,
            "byteOffset" : 479060
        },
        {
            "buffer" : 0,
            "byteLength" : 216,
            "byteOffset" : 479444
        },
        {
            "buffer" : 0,
            "byteLength" : 124588,
            "byteOffset" : 479660
        },
        {
            "buffer" : 0,
            "byteLength" : 83796,
            "byteOffset" : 604248
        },
        {
            "buffer" : 0,
            "byteLength" : 83796,
            "byteOffset" : 688044
        },
        {
            "buffer" : 0,
            "byteLength" : 55864,
            "byteOffset" : 771840
        },
        {
            "buffer" : 0,
            "byteLength" : 37776,
            "byteOffset" : 827704
        }
    ],
    "samplers" : [
        {
            "magFilter" : 9729,
            "minFilter" : 9986
        }
    ],
    "buffers" : [
        {
            "byteLength" : 865480,
            "uri" : "data:application/octet-stream;base64,"
        }
    ]
}
