{
    "asset" : {
        "generator" : "Khronos glTF Blender I/O v1.4.40",
        "version" : "2.0"
    },
    "scene" : 0,
    "scenes" : [
        {
            "name" : "Scene",
            "nodes" : [
                0
            ]
        }
    ],
    "nodes" : [
        {
            "mesh" : 0,
            "name" : "SNES",
            "rotation" : [
                0,
                0,
                1,
                -1.6292068494294654e-07
            ]
        }
    ],
    "materials" : [
        {
            "doubleSided" : true,
            "name" : "CONSOLE",
            "pbrMetallicRoughness" : {
                "baseColorFactor" : [
                    0.26093703508377075,
                    0.29190531373023987,
                    0.39722171425819397,
                    1
                ],
                "metallicFactor" : 0,
                "roughnessFactor" : 0.5
            }
        },
        {
            "doubleSided" : true,
            "name" : "POWER&RESET",
            "pbrMetallicRoughness" : {
                "baseColorFactor" : [
                    0.11884970963001251,
                    0,
                    0.8000000715255737,
                    1
                ],
                "metallicFactor" : 0,
                "roughnessFactor" : 0.5
            }
        },
        {
            "doubleSided" : true,
            "name" : "CONTROL-IN/EJECT",
            "pbrMetallicRoughness" : {
                "baseColorFactor" : [
                    0.14251826703548431,
                    0.1503584384918213,
                    0.2870435118675232,
                    1
                ],
                "metallicFactor" : 0,
                "roughnessFactor" : 0.4000000059604645
            }
        },
        {
            "doubleSided" : true,
            "name" : "LIGHT",
            "pbrMetallicRoughness" : {
                "baseColorFactor" : [
                    1,
                    0.0024055547546595335,
                    0,
                    1
                ],
                "metallicFactor" : 0
            }
        },
        {
            "doubleSided" : true,
            "name" : "PIN connectors",
            "pbrMetallicRoughness" : {
                "baseColorFactor" : [
                    0.10878514498472214,
                    0.050056811422109604,
                    0.021378187462687492,
                    1
                ],
                "roughnessFactor" : 0.5
            }
        },
        {
            "doubleSided" : true,
            "name" : "RUBBER/B.PLASTIC",
            "pbrMetallicRoughness" : {
                "baseColorFactor" : [
                    0.01113487035036087,
                    0.01113487035036087,
                    0.01113487035036087,
                    1
                ],
                "metallicFactor" : 0,
                "roughnessFactor" : 0.5
            }
        },
        {
            "doubleSided" : true,
            "name" : "RF METAL",
            "pbrMetallicRoughness" : {
                "baseColorFactor" : [
                    0.07564203441143036,
                    0.07564203441143036,
                    0.07564203441143036,
                    1
                ],
                "roughnessFactor" : 0.5
            }
        },
        {
            "doubleSided" : true,
            "name" : "RF PLASTIC",
            "pbrMetallicRoughness" : {
                "baseColorFactor" : [
                    0.08114199340343475,
                    0.023679735139012337,
                    0.0066674561239778996,
                    1
                ],
                "metallicFactor" : 0,
                "roughnessFactor" : 0.5
            }
        }
    ],
    "meshes" : [
        {
            "name" : "Cube",
            "primitives" : [
                {
                    "attributes" : {
                        "POSITION" : 0,
                        "NORMAL" : 1,
                        "TEXCOORD_0" : 2
                    },
                    "indices" : 3,
                    "material" : 0
                },
                {
                    "attributes" : {
                        "POSITION" : 4,
                        "NORMAL" : 5,
                        "TEXCOORD_0" : 6
                    },
                    "indices" : 7,
                    "material" : 1
                },
                {
                    "attributes" : {
                        "POSITION" : 8,
                        "NORMAL" : 9,
                        "TEXCOORD_0" : 10
                    },
                    "indices" : 11,
                    "material" : 2
                },
                {
                    "attributes" : {
                        "POSITION" : 12,
                        "NORMAL" : 13,
                        "TEXCOORD_0" : 14
                    },
                    "indices" : 15,
                    "material" : 3
                },
                {
                    "attributes" : {
                        "POSITION" : 16,
                        "NORMAL" : 17,
                        "TEXCOORD_0" : 18
                    },
                    "indices" : 19,
                    "material" : 4
                },
                {
                    "attributes" : {
                        "POSITION" : 20,
                        "NORMAL" : 21,
                        "TEXCOORD_0" : 22
                    },
                    "indices" : 23,
                    "material" : 5
                },
                {
                    "attributes" : {
                        "POSITION" : 24,
                        "NORMAL" : 25,
                        "TEXCOORD_0" : 26
                    },
                    "indices" : 27,
                    "material" : 6
                },
                {
                    "attributes" : {
                        "POSITION" : 28,
                        "NORMAL" : 29,
                        "TEXCOORD_0" : 30
                    },
                    "indices" : 31,
                    "material" : 7
                }
            ]
        }
    ],
    "accessors" : [
        {
            "bufferView" : 0,
            "componentType" : 5126,
            "count" : 27169,
            "max" : [
                2.0963706970214844,
                0.763669490814209,
                2.4556140899658203
            ],
            "min" : [
                -2.0963706970214844,
                -0.8099749088287354,
                -2.5377964973449707
            ],
            "type" : "VEC3"
        },
        {
            "bufferView" : 1,
            "componentType" : 5126,
            "count" : 27169,
            "type" : "VEC3"
        },
        {
            "bufferView" : 2,
            "componentType" : 5126,
            "count" : 27169,
            "type" : "VEC2"
        },
        {
            "bufferView" : 3,
            "componentType" : 5123,
            "count" : 52773,
            "type" : "SCALAR"
        },
        {
            "bufferView" : 4,
            "componentType" : 5126,
            "count" : 1459,
            "max" : [
                1.4987741708755493,
                -0.5032148361206055,
                -0.6904120445251465
            ],
            "min" : [
                -1.498038411140442,
                -0.6193063259124756,
                -1.149783730506897
            ],
            "type" : "VEC3"
        },
        {
            "bufferView" : 5,
            "componentType" : 5126,
            "count" : 1459,
            "type" : "VEC3"
        },
        {
            "bufferView" : 6,
            "componentType" : 5126,
            "count" : 1459,
            "type" : "VEC2"
        },
        {
            "bufferView" : 7,
            "componentType" : 5123,
            "count" : 2478,
            "type" : "SCALAR"
        },
        {
            "bufferView" : 8,
            "componentType" : 5126,
            "count" : 2951,
            "max" : [
                1.2206676006317139,
                0.05782094597816467,
                -0.7066613435745239
            ],
            "min" : [
                -1.2300004959106445,
                -0.48815271258354187,
                -2.5040106773376465
            ],
            "type" : "VEC3"
        },
        {
            "bufferView" : 9,
            "componentType" : 5126,
            "count" : 2951,
            "type" : "VEC3"
        },
        {
            "bufferView" : 10,
            "componentType" : 5126,
            "count" : 2951,
            "type" : "VEC2"
        },
        {
            "bufferView" : 11,
            "componentType" : 5123,
            "count" : 4863,
            "type" : "SCALAR"
        },
        {
            "bufferView" : 12,
            "componentType" : 5126,
            "count" : 80,
            "max" : [
                -1.7371662855148315,
                0.030766066163778305,
                -2.4276700019836426
            ],
            "min" : [
                -1.7886983156204224,
                -0.020766060799360275,
                -2.449584484100342
            ],
            "type" : "VEC3"
        },
        {
            "bufferView" : 13,
            "componentType" : 5126,
            "count" : 80,
            "type" : "VEC3"
        },
        {
            "bufferView" : 14,
            "componentType" : 5126,
            "count" : 80,
            "type" : "VEC2"
        },
        {
            "bufferView" : 15,
            "componentType" : 5123,
            "count" : 138,
            "type" : "SCALAR"
        },
        {
            "bufferView" : 16,
            "componentType" : 5126,
            "count" : 1361,
            "max" : [
                1.1865509748458862,
                0.36623066663742065,
                2.1706113815307617
            ],
            "min" : [
                -1.195883870124817,
                -0.015986213460564613,
                -2.4706621170043945
            ],
            "type" : "VEC3"
        },
        {
            "bufferView" : 17,
            "componentType" : 5126,
            "count" : 1361,
            "type" : "VEC3"
        },
        {
            "bufferView" : 18,
            "componentType" : 5126,
            "count" : 1361,
            "type" : "VEC2"
        },
        {
            "bufferView" : 19,
            "componentType" : 5123,
            "count" : 2295,
            "type" : "SCALAR"
        },
        {
            "bufferView" : 20,
            "componentType" : 5126,
            "count" : 1261,
            "max" : [
                1.6382184028625488,
                0.7836694717407227,
                2.2164549827575684
            ],
            "min" : [
                -1.6308693885803223,
                0.21450558304786682,
                -1.7421798706054688
            ],
            "type" : "VEC3"
        },
        {
            "bufferView" : 21,
            "componentType" : 5126,
            "count" : 1261,
            "type" : "VEC3"
        },
        {
            "bufferView" : 22,
            "componentType" : 5126,
            "count" : 1261,
            "type" : "VEC2"
        },
        {
            "bufferView" : 23,
            "componentType" : 5123,
            "count" : 2343,
            "type" : "SCALAR"
        },
        {
            "bufferView" : 24,
            "componentType" : 5126,
            "count" : 240,
            "max" : [
                -0.6815593242645264,
                0.40900206565856934,
                2.317930221557617
            ],
            "min" : [
                -0.8605735301971436,
                0.23096852004528046,
                2.0775322914123535
            ],
            "type" : "VEC3"
        },
        {
            "bufferView" : 25,
            "componentType" : 5126,
            "count" : 240,
            "type" : "VEC3"
        },
        {
            "bufferView" : 26,
            "componentType" : 5126,
            "count" : 240,
            "type" : "VEC2"
        },
        {
            "bufferView" : 27,
            "componentType" : 5123,
            "count" : 372,
            "type" : "SCALAR"
        },
        {
            "bufferView" : 28,
            "componentType" : 5126,
            "count" : 315,
            "max" : [
                -0.6915044784545898,
                0.3992203176021576,
                2.3079304695129395
            ],
            "min" : [
                -0.8506283760070801,
                0.24096855521202087,
                2.0480599403381348
            ],
            "type" : "VEC3"
        },
        {
            "bufferView" : 29,
            "componentType" : 5126,
            "count" : 315,
            "type" : "VEC3"
        },
        {
            "bufferView" : 30,
            "componentType" : 5126,
            "count" : 315,
            "type" : "VEC2"
        },
        {
            "bufferView" : 31,
            "componentType" : 5123,
            "count" : 495,
            "type" : "SCALAR"
        }
    ],
    "bufferViews" : [
        {
            "buffer" : 0,
            "byteLength" : 326028,
            "byteOffset" : 0
        },
        {
            "buffer" : 0,
            "byteLength" : 326028,
            "byteOffset" : 326028
        },
        {
            "buffer" : 0,
            "byteLength" : 217352,
            "byteOffset" : 652056
        },
        {
            "buffer" : 0,
            "byteLength" : 105546,
            "byteOffset" : 869408
        },
        {
            "buffer" : 0,
            "byteLength" : 17508,
            "byteOffset" : 974956
        },
        {
            "buffer" : 0,
            "byteLength" : 17508,
            "byteOffset" : 992464
        },
        {
            "buffer" : 0,
            "byteLength" : 11672,
            "byteOffset" : 1009972
        },
        {
            "buffer" : 0,
            "byteLength" : 4956,
            "byteOffset" : 1021644
        },
        {
            "buffer" : 0,
            "byteLength" : 35412,
            "byteOffset" : 1026600
        },
        {
            "buffer" : 0,
            "byteLength" : 35412,
            "byteOffset" : 1062012
        },
        {
            "buffer" : 0,
            "byteLength" : 23608,
            "byteOffset" : 1097424
        },
        {
            "buffer" : 0,
            "byteLength" : 9726,
            "byteOffset" : 1121032
        },
        {
            "buffer" : 0,
            "byteLength" : 960,
            "byteOffset" : 1130760
        },
        {
            "buffer" : 0,
            "byteLength" : 960,
            "byteOffset" : 1131720
        },
        {
            "buffer" : 0,
            "byteLength" : 640,
            "byteOffset" : 1132680
        },
        {
            "buffer" : 0,
            "byteLength" : 276,
            "byteOffset" : 1133320
        },
        {
            "buffer" : 0,
            "byteLength" : 16332,
            "byteOffset" : 1133596
        },
        {
            "buffer" : 0,
            "byteLength" : 16332,
            "byteOffset" : 1149928
        },
        {
            "buffer" : 0,
            "byteLength" : 10888,
            "byteOffset" : 1166260
        },
        {
            "buffer" : 0,
            "byteLength" : 4590,
            "byteOffset" : 1177148
        },
        {
            "buffer" : 0,
            "byteLength" : 15132,
            "byteOffset" : 1181740
        },
        {
            "buffer" : 0,
            "byteLength" : 15132,
            "byteOffset" : 1196872
        },
        {
            "buffer" : 0,
            "byteLength" : 10088,
            "byteOffset" : 1212004
        },
        {
            "buffer" : 0,
            "byteLength" : 4686,
            "byteOffset" : 1222092
        },
        {
            "buffer" : 0,
            "byteLength" : 2880,
            "byteOffset" : 1226780
        },
        {
            "buffer" : 0,
            "byteLength" : 2880,
            "byteOffset" : 1229660
        },
        {
            "buffer" : 0,
            "byteLength" : 1920,
            "byteOffset" : 1232540
        },
        {
            "buffer" : 0,
            "byteLength" : 744,
            "byteOffset" : 1234460
        },
        {
            "buffer" : 0,
            "byteLength" : 3780,
            "byteOffset" : 1235204
        },
        {
            "buffer" : 0,
            "byteLength" : 3780,
            "byteOffset" : 1238984
        },
        {
            "buffer" : 0,
            "byteLength" : 2520,
            "byteOffset" : 1242764
        },
        {
            "buffer" : 0,
            "byteLength" : 990,
            "byteOffset" : 1245284
        }
    ],
    "buffers" : [
        {
            "byteLength" : 1246276,
            "uri" : "data:application/octet-stream;base64,"
        }
    ]
}
